<svg width="35" height="27" viewBox="0 0 35 27" fill="none" xmlns="http://www.w3.org/2000/svg">
<path d="M6.16948 12.8886H33.0176C34.0625 12.8886 34.9122 12.0985 34.9122 11.127C34.9122 10.1554 34.0625 9.3653 33.0176 9.3653H4.41265C1.9794 9.3653 0 11.2058 0 13.4683C0 15.7308 1.9794 17.5713 4.41265 17.5713H33.0176C34.0625 17.5713 34.9122 16.7812 34.9122 15.8096C34.9122 14.8381 34.0625 14.048 33.0176 14.048H6.16948C5.82473 14.048 5.54605 13.7883 5.54605 13.4683C5.54605 13.1483 5.82473 12.8886 6.16948 12.8886Z" fill="#198EDF"/>
<path d="M6.16948 3.52331H33.0176C34.0625 3.52331 34.9122 2.73321 34.9122 1.76166C34.9122 0.790108 34.0625 0 33.0176 0H4.41265C1.9794 0 0 1.84049 0 4.103C0 6.3655 1.9794 8.20599 4.41265 8.20599H33.0176C34.0625 8.20599 34.9122 7.41589 34.9122 6.44434C34.9122 5.47279 34.0625 4.68268 33.0176 4.68268H6.16948C5.82473 4.68268 5.54605 4.42298 5.54605 4.103C5.54605 3.78301 5.82473 3.52331 6.16948 3.52331Z" fill="#198EDF"/>
<path d="M6.16948 22.2546H33.0176C34.0625 22.2546 34.9122 21.4645 34.9122 20.4929C34.9122 19.5214 34.0625 18.7313 33.0176 18.7313H4.41265C1.9794 18.7313 0 20.5718 0 22.8343C0 25.0968 1.9794 26.9373 4.41265 26.9373H33.0176C34.0625 26.9373 34.9122 26.1471 34.9122 25.1756C34.9122 24.204 34.0625 23.4139 33.0176 23.4139H6.16948C5.82473 23.4139 5.54605 23.1542 5.54605 22.8343C5.54605 22.5143 5.82473 22.2546 6.16948 22.2546Z" fill="#198EDF"/>
</svg>
