<svg width="19" height="19" viewBox="0 0 19 19" fill="none" xmlns="http://www.w3.org/2000/svg">
<g clip-path="url(#clip0_170_6288)">
<path d="M17.5156 19C17.1223 19 16.7437 18.8441 16.4654 18.5658L9.5 11.6004L2.53457 18.5658C1.95566 19.1447 1.01309 19.1447 0.43418 18.5658C-0.144727 17.9869 -0.144727 17.0443 0.43418 16.4654L7.39961 9.5L0.43418 2.53457C-0.144727 1.95566 -0.144727 1.01309 0.43418 0.43418C1.01309 -0.144727 1.95566 -0.144727 2.53457 0.43418L9.5 7.39961L16.4617 0.43418C17.0406 -0.144727 17.9832 -0.144727 18.5621 0.43418C19.141 1.01309 19.141 1.95566 18.5621 2.53457L11.6004 9.5L18.5621 16.4617C19.1447 17.0406 19.1447 17.9795 18.5658 18.5621C18.2912 18.8441 17.9127 19 17.5156 19Z" fill="#DF3019"/>
</g>
<defs>
<clipPath id="clip0_170_6288">
<rect width="19" height="19" fill="white"/>
</clipPath>
</defs>
</svg>
