<svg width="32" height="33" viewBox="0 0 32 33" fill="none" xmlns="http://www.w3.org/2000/svg">
<path d="M4.62136 11.6116H3.08091C1.37937 11.6116 0 12.9979 0 14.7081V29.4161C0 31.1262 1.37937 32.5125 3.08091 32.5125H4.62136C6.3229 32.5125 7.70227 31.1262 7.70227 29.4161V14.7081C7.70227 12.9979 6.3229 11.6116 4.62136 11.6116Z" fill="#198EDF"/>
<path d="M25.3043 32.5124H12.3241C11.507 32.5124 10.7233 32.1862 10.1455 31.6055C9.56776 31.0248 9.24316 30.2372 9.24316 29.416V13.7178C9.24316 12.8473 9.48656 11.9943 9.94561 11.2561L15.8126 1.82166C16.1592 1.26421 16.6413 0.804534 17.2134 0.485863C17.7854 0.167192 18.4288 -3.23681e-06 19.0828 0C19.706 1.06548e-05 20.3198 0.151776 20.8718 0.442305C21.4238 0.732834 21.8976 1.15347 22.2525 1.66822C22.6074 2.18296 22.8329 2.77647 22.9098 3.39796C22.9866 4.01944 22.9125 4.65038 22.6937 5.23676L20.0263 12.3857H28.7588C29.203 12.3857 29.642 12.4822 30.0456 12.6687C30.4492 12.8551 30.8079 13.1271 31.0971 13.4659C31.3863 13.8048 31.5993 14.2024 31.7213 14.6317C31.8433 15.061 31.8714 15.5117 31.8039 15.9529L29.8719 28.574C29.7041 29.6706 29.1512 30.6705 28.3134 31.3929C27.4756 32.1153 26.4082 32.5124 25.3043 32.5124Z" fill="#198EDF"/>
</svg>
