<svg width="36" height="37" viewBox="0 0 36 37" fill="none" xmlns="http://www.w3.org/2000/svg">
<path d="M18.1825 36.6105C15.1576 36.6162 12.2044 35.6848 9.72504 33.9432C9.44892 33.7498 9.26057 33.454 9.2014 33.121C9.14224 32.788 9.21713 32.4451 9.40958 32.1675C9.60204 31.89 9.8963 31.7007 10.2276 31.6413C10.559 31.5818 10.9002 31.6571 11.1763 31.8505C13.0152 33.1372 15.1697 33.893 17.4059 34.0357C19.642 34.1785 21.8744 33.7028 23.8605 32.6603C25.8466 31.6177 27.5105 30.0483 28.6716 28.1223C29.8327 26.1963 30.4466 23.9874 30.4466 21.7354C30.4466 19.4835 29.8327 17.2746 28.6716 15.3486C27.5105 13.4226 25.8466 11.8531 23.8605 10.8106C21.8744 9.76811 19.642 9.2924 17.4059 9.43516C15.1697 9.57791 13.0152 10.3337 11.1763 11.6204C11.0396 11.7162 10.8855 11.7839 10.7227 11.8198C10.5599 11.8557 10.3917 11.859 10.2276 11.8296C10.0636 11.8002 9.90689 11.7385 9.76653 11.6482C9.62616 11.5579 9.50488 11.4407 9.40958 11.3033C9.31429 11.1659 9.24686 11.011 9.21114 10.8474C9.17542 10.6838 9.17211 10.5147 9.2014 10.3498C9.26057 10.0168 9.44892 9.72109 9.72504 9.52767C11.6315 8.19363 13.8237 7.32937 16.1242 7.00479C18.4247 6.68022 20.769 6.90445 22.9672 7.65935C25.1655 8.41425 27.1561 9.67861 28.778 11.3501C30.3999 13.0217 31.6075 15.0535 32.3032 17.2811C32.9988 19.5087 33.1629 21.8696 32.7823 24.1728C32.4016 26.476 31.4869 28.6568 30.1121 30.5388C28.7372 32.4208 26.9409 33.9511 24.8684 35.0059C22.796 36.0607 20.5056 36.6104 18.1825 36.6105Z" fill="#198EDF"/>
<path d="M9.72599 23.8605H2.96002C2.62357 23.8605 2.30089 23.7262 2.06298 23.4871C1.82506 23.2479 1.69141 22.9236 1.69141 22.5855C1.69141 22.2473 1.82506 21.923 2.06298 21.6839C2.30089 21.4448 2.62357 21.3105 2.96002 21.3105H9.72599C10.0624 21.3105 10.3851 21.4448 10.623 21.6839C10.861 21.923 10.9946 22.2473 10.9946 22.5855C10.9946 22.9236 10.861 23.2479 10.623 23.4871C10.3851 23.7262 10.0624 23.8605 9.72599 23.8605Z" fill="#198EDF"/>
<path d="M10.8763 18.7604H1.26862C0.93216 18.7604 0.609482 18.6261 0.37157 18.387C0.133658 18.1479 0 17.8235 0 17.4854C0 17.1472 0.133658 16.8229 0.37157 16.5838C0.609482 16.3447 0.93216 16.2104 1.26862 16.2104H10.8763C11.2127 16.2104 11.5354 16.3447 11.7733 16.5838C12.0113 16.8229 12.1449 17.1472 12.1449 17.4854C12.1449 17.8235 12.0113 18.1479 11.7733 18.387C11.5354 18.6261 11.2127 18.7604 10.8763 18.7604Z" fill="#198EDF"/>
<path d="M11.4176 28.9605H1.26862C0.93216 28.9605 0.609482 28.8262 0.37157 28.5871C0.133658 28.348 0 28.0237 0 27.6855C0 27.3474 0.133658 27.0231 0.37157 26.784C0.609482 26.5449 0.93216 26.4105 1.26862 26.4105H11.4176C11.754 26.4105 12.0767 26.5449 12.3146 26.784C12.5525 27.0231 12.6862 27.3474 12.6862 27.6855C12.6862 28.0237 12.5525 28.348 12.3146 28.5871C12.0767 28.8262 11.754 28.9605 11.4176 28.9605Z" fill="#198EDF"/>
<path d="M34.4537 4.12504L28.75 0.46492C28.0876 0.0418093 27.2852 -0.10005 26.5188 0.0704389C25.7525 0.240928 25.0846 0.709855 24.6617 1.37443L23.7517 2.80753C23.3302 3.47274 23.1885 4.27888 23.3579 5.04894C23.5272 5.81901 23.9937 6.49006 24.6549 6.91476L30.362 10.5732C31.0241 10.9949 31.8254 11.1362 32.5908 10.9661C33.3562 10.796 34.0235 10.3284 34.447 9.66537L35.357 8.23226C35.7776 7.5668 35.9187 6.76095 35.7494 5.99115C35.5801 5.22136 35.1142 4.55034 34.4537 4.12504Z" fill="#198EDF"/>
<path d="M26.3686 11.8108C26.1414 11.8104 25.9185 11.7486 25.7232 11.632C25.5279 11.5154 25.3674 11.3482 25.2583 11.1479C25.1492 10.9476 25.0957 10.7216 25.1032 10.4934C25.1108 10.2652 25.1792 10.0433 25.3012 9.85071L27.1196 6.98449C27.2092 6.84329 27.3257 6.72121 27.4622 6.62522C27.5988 6.52924 27.7528 6.46123 27.9156 6.42508C28.0783 6.38893 28.2465 6.38535 28.4106 6.41453C28.5747 6.44372 28.7315 6.50511 28.872 6.59519C29.0125 6.68527 29.1339 6.80228 29.2295 6.93954C29.325 7.0768 29.3926 7.23162 29.4286 7.39517C29.4646 7.55871 29.4681 7.72777 29.4391 7.8927C29.41 8.05763 29.349 8.21519 29.2593 8.3564L27.4393 11.2209C27.325 11.4022 27.1668 11.5513 26.9795 11.6545C26.7923 11.7576 26.5821 11.8114 26.3686 11.8108Z" fill="#198EDF"/>
<path d="M18.1831 11.9604C16.2595 11.9604 14.379 12.5337 12.7796 13.6078C11.1801 14.6819 9.93353 16.2085 9.19739 17.9947C8.46125 19.7808 8.26864 21.7463 8.64392 23.6424C9.0192 25.5386 9.94552 27.2804 11.3057 28.6474C12.666 30.0145 14.399 30.9455 16.2856 31.3226C18.1723 31.6998 20.1279 31.5062 21.9051 30.7664C23.6823 30.0265 25.2013 28.7736 26.27 27.1661C27.3388 25.5586 27.9092 23.6687 27.9092 21.7354C27.9177 20.4493 27.672 19.1744 27.1862 17.9845C26.7005 16.7947 25.9844 15.7137 25.0795 14.8043C24.1747 13.8949 23.0991 13.1752 21.9152 12.687C20.7313 12.1988 19.4627 11.9518 18.1831 11.9604ZM22.3983 19.7464L20.6713 21.2526C20.7031 21.4116 20.7195 21.5733 20.7203 21.7354C20.729 22.287 20.5621 22.827 20.2442 23.2767C19.9262 23.7265 19.4737 24.0624 18.9526 24.2357C18.4315 24.409 17.8689 24.4106 17.3468 24.2402C16.8247 24.0699 16.3703 23.7365 16.0499 23.2885C15.7294 22.8406 15.5596 22.3016 15.5651 21.7499C15.5707 21.1983 15.7513 20.6628 16.0807 20.2215C16.41 19.7801 16.871 19.456 17.3964 19.2962C17.9218 19.1365 18.4842 19.1495 19.0018 19.3333L20.7339 17.8203C20.988 17.5985 21.3194 17.4872 21.6552 17.5109C21.991 17.5347 22.3036 17.6915 22.5243 17.9469C22.745 18.2024 22.8558 18.5354 22.8321 18.8729C22.8085 19.2104 22.6524 19.5246 22.3983 19.7464Z" fill="#198EDF"/>
</svg>
