<svg width="46" height="27" viewBox="0 0 46 27" fill="none" xmlns="http://www.w3.org/2000/svg">
<path fill-rule="evenodd" clip-rule="evenodd" d="M32.6287 0.268719C36.5969 1.18661 38.1148 3.49961 40.0179 6.68317H32.6287V0.268719ZM9.438 6.9505C10.215 6.9505 10.7789 7.32434 10.7789 8.19802C10.7789 8.93491 10.1807 9.53257 9.44185 9.53465H1.3409C0.600264 9.53465 0 10.1334 0 10.8713C0 11.6096 0.600264 12.2079 1.3409 12.2079H13.409C14.1567 12.2079 14.7552 12.8059 14.7552 13.5446C14.7552 14.2828 14.1549 14.8812 13.4143 14.8812H1.3409C0.600264 14.8812 0 15.4795 0 16.2178C0 16.9561 0.600264 17.5545 1.3409 17.5545H4.29089V21.5644C4.29089 22.3026 4.89115 22.901 5.63179 22.901H8.32722C8.80771 25.2603 10.899 27 13.3643 27C15.8296 27 17.921 25.2603 18.4015 22.901H32.0165C32.497 25.2603 34.5883 27 37.0536 27C39.5189 27 41.6103 25.2603 42.0908 22.901H44.4286C45.1692 22.901 45.7695 22.3026 45.7695 21.5644V13.5446C45.7695 9.62272 41.6197 9.36235 41.6158 9.35644H31.2877C30.5471 9.35644 29.9468 8.75808 29.9468 8.0198V0H5.63179C4.89115 0 4.29089 0.598352 4.29089 1.33663V4.27723H2.68181C1.94117 4.27723 1.3409 4.87558 1.3409 5.61386C1.3409 6.35214 1.94117 6.9505 2.68181 6.9505H9.438ZM38.7919 20.1435C39.7519 21.1004 39.7519 22.6525 38.7919 23.6093C37.2478 25.1486 34.5953 24.0535 34.5953 21.8762C34.5953 19.6993 37.2478 18.6043 38.7919 20.1435ZM15.1026 20.1435C16.0626 21.1004 16.0626 22.6525 15.1026 23.6093C13.5585 25.1486 10.906 24.0535 10.906 21.8762C10.906 19.6993 13.5585 18.6043 15.1026 20.1435Z" fill="#198EDF"/>
</svg>
