<svg width="239" height="51" viewBox="0 0 239 51" fill="none" xmlns="http://www.w3.org/2000/svg">
<path d="M216.69 5.71C214.63 5.71 212.64 6 210.75 6.54C211.65 8.24 212.17 10.18 212.17 12.25C212.17 19.01 206.69 24.49 199.93 24.49C198.27 24.49 196.7 24.16 195.26 23.56C195.02 24.85 194.89 26.17 194.89 27.52C194.89 39.56 204.65 49.33 216.7 49.33C228.75 49.33 238.51 39.57 238.51 27.52C238.49 15.47 228.73 5.71 216.69 5.71Z" fill="#6ABEE8"/>
<path d="M210.74 6.53C208.69 2.65 204.62 0 199.92 0C193.16 0 187.68 5.48 187.68 12.24C187.68 17.34 190.81 21.71 195.25 23.55C196.75 15.36 202.83 8.77 210.74 6.53Z" fill="#96CDEF"/>
<path d="M212.159 12.24C212.159 10.18 211.639 8.24 210.739 6.53C202.829 8.77 196.749 15.35 195.239 23.55C196.679 24.15 198.259 24.48 199.909 24.48C206.679 24.48 212.159 19 212.159 12.24Z" fill="#47A8DD"/>
<path d="M214.14 31.96C214.615 31.96 215 31.575 215 31.1C215 30.625 214.615 30.24 214.14 30.24C213.665 30.24 213.28 30.625 213.28 31.1C213.28 31.575 213.665 31.96 214.14 31.96Z" fill="white"/>
<path d="M4.87 32.41C4.87 32.81 4.99 33.13 5.24 33.36C5.48 33.59 5.81 33.71 6.23 33.71C6.77 33.71 7.35 33.71 7.96 33.71C8.57 33.71 9.14 33.71 9.66 33.71C10.27 33.71 10.89 33.65 11.5 33.54V24.84H16.37V43.33H11.5V37.24C10.85 37.35 10.17 37.41 9.45 37.41C8.84 37.41 8.16 37.41 7.41 37.41C6.66 37.41 5.91 37.41 5.15 37.41C3.38 37.41 2.09 37.01 1.26 36.21C0.41 35.4 0 34.15 0 32.44V24.85H4.87V32.41Z" fill="#429DCD"/>
<path d="M36.0896 43.33H31.2196V31.97L24.7296 43.33H19.5996V24.84H24.4696V36.2L30.9596 24.84H36.0996V43.33H36.0896Z" fill="#429DCD"/>
<path d="M43.9298 43.41C42.1598 43.41 40.8698 43.01 40.0398 42.21C39.2098 41.41 38.7998 40.15 38.7998 38.45V30.08C38.7998 28.25 39.2298 26.92 40.0798 26.09C40.9398 25.26 42.3098 24.85 44.1998 24.85H53.9298V28.55H45.2798C44.1998 28.55 43.6598 29.08 43.6598 30.13V38.54C43.6598 38.94 43.7798 39.26 44.0298 39.5C44.2798 39.74 44.5998 39.85 45.0198 39.85C45.3598 39.85 45.7598 39.85 46.2098 39.85C46.6598 39.85 47.1298 39.85 47.6198 39.85C48.1098 39.85 48.5998 39.85 49.0898 39.85C49.5898 39.85 50.0698 39.78 50.5398 39.63C51.6398 39.63 52.7698 39.63 53.9498 39.63V43.08C52.7398 43.31 51.5398 43.42 50.3498 43.42C49.3198 43.42 48.2398 43.42 47.0898 43.42C45.9398 43.41 44.8898 43.41 43.9298 43.41Z" fill="#429DCD"/>
<path d="M65.2902 43.33H60.4202V28.54H54.7402V24.84H70.9602V28.54H65.2802V43.33H65.2902Z" fill="#429DCD"/>
<path d="M89.8901 38.31C89.8901 40.16 89.4601 41.5 88.6101 42.34C87.7501 43.18 86.3801 43.59 84.4901 43.59H77.7301C75.8401 43.59 74.4601 43.17 73.6101 42.34C72.7501 41.5 72.3301 40.16 72.3301 38.31V29.86C72.3301 28.01 72.7601 26.67 73.6101 25.83C74.4701 24.99 75.8401 24.58 77.7301 24.58H84.4901C86.3801 24.58 87.7601 25 88.6101 25.83C89.4701 26.67 89.8901 28.01 89.8901 29.86V38.31ZM85.0301 29.86C85.0301 28.8 84.4901 28.28 83.4101 28.28H78.8101C77.7301 28.28 77.1901 28.81 77.1901 29.86V38.31C77.1901 39.37 77.7301 39.89 78.8101 39.89H83.4101C84.4901 39.89 85.0301 39.36 85.0301 38.31V29.86Z" fill="#429DCD"/>
<path d="M100.71 24.84H112.07C113.96 24.84 115.34 25.26 116.19 26.09C117.05 26.93 117.47 28.27 117.47 30.12V32.76C117.47 34.61 117.04 35.95 116.19 36.79C115.34 37.63 113.96 38.04 112.07 38.04H105.58V43.32H100.71V24.84ZM112.6 30.12C112.6 29.06 112.06 28.54 110.98 28.54H105.57V34.35H110.98C112.06 34.35 112.6 33.82 112.6 32.77V30.12Z" fill="#429DCD"/>
<path d="M119.9 24.84H131.26C133.15 24.84 134.53 25.26 135.38 26.09C136.24 26.93 136.66 28.27 136.66 30.12V32.5C136.66 33.96 136.41 35.1 135.92 35.91C135.42 36.72 134.64 37.26 133.55 37.52L136.93 43.33H131.66L128.55 37.78H124.76V43.33H119.89V24.84H119.9ZM131.8 30.12C131.8 29.06 131.26 28.54 130.18 28.54H124.77V34.09H130.18C131.26 34.09 131.8 33.56 131.8 32.51V30.12Z" fill="#429DCD"/>
<path d="M156.4 38.31C156.4 40.16 155.97 41.5 155.12 42.34C154.26 43.18 152.89 43.59 151 43.59H144.24C142.35 43.59 140.97 43.17 140.12 42.34C139.26 41.5 138.84 40.16 138.84 38.31V29.86C138.84 28.01 139.27 26.67 140.12 25.83C140.98 24.99 142.35 24.58 144.24 24.58H151C152.89 24.58 154.27 25 155.12 25.83C155.98 26.67 156.4 28.01 156.4 29.86V38.31ZM151.54 29.86C151.54 28.8 151 28.28 149.92 28.28H145.32C144.24 28.28 143.7 28.81 143.7 29.86V38.31C143.7 39.37 144.24 39.89 145.32 39.89H149.92C151 39.89 151.54 39.36 151.54 38.31V29.86Z" fill="#429DCD"/>
<path d="M163.97 43.33H159.1V24.84H174.1V28.54H163.96V32.9H171.94V36.6H163.96V43.33H163.97Z" fill="#429DCD"/>
<path d="M180.87 43.33H176V24.84H191V28.54H180.86V32.9H188.84V36.6H180.86V43.33H180.87Z" fill="#429DCD"/>
<path d="M91.8896 24.61H96.7597V28.31L94.8697 31.21H92.4397L93.5196 28.57H91.8997V24.61H91.8896Z" fill="#429DCD"/>
<path d="M228.72 50.23H200.28C198.71 50.23 197.44 48.96 197.44 47.39V10.75C197.44 9.18 198.71 7.91 200.28 7.91H228.72C230.29 7.91 231.56 9.18 231.56 10.75V47.38C231.56 48.95 230.28 50.23 228.72 50.23ZM200.28 8.91C199.27 8.91 198.44 9.74 198.44 10.75V47.38C198.44 48.39 199.27 49.22 200.28 49.22H228.72C229.73 49.22 230.56 48.39 230.56 47.38V10.75C230.56 9.74 229.73 8.91 228.72 8.91H200.28Z" fill="#333333"/>
<path d="M231.06 13.18H197.65V14.18H231.06V13.18Z" fill="#333333"/>
<path d="M201.16 12.38C200.35 12.38 199.69 11.72 199.69 10.91C199.69 10.1 200.35 9.44 201.16 9.44C201.97 9.44 202.63 10.1 202.63 10.91C202.62 11.72 201.97 12.38 201.16 12.38ZM201.16 10.45C200.9 10.45 200.69 10.66 200.69 10.92C200.69 11.18 200.9 11.39 201.16 11.39C201.42 11.39 201.63 11.18 201.63 10.92C201.63 10.66 201.41 10.45 201.16 10.45Z" fill="#333333"/>
<path d="M204.85 12.38C204.04 12.38 203.38 11.72 203.38 10.91C203.38 10.1 204.04 9.44 204.85 9.44C205.66 9.44 206.32 10.1 206.32 10.91C206.32 11.72 205.66 12.38 204.85 12.38ZM204.85 10.45C204.59 10.45 204.38 10.66 204.38 10.92C204.38 11.18 204.59 11.39 204.85 11.39C205.11 11.39 205.32 11.18 205.32 10.92C205.32 10.66 205.11 10.45 204.85 10.45Z" fill="#333333"/>
<path d="M208.54 12.38C207.73 12.38 207.07 11.72 207.07 10.91C207.07 10.1 207.73 9.44 208.54 9.44C209.35 9.44 210.01 10.1 210.01 10.91C210.01 11.72 209.35 12.38 208.54 12.38ZM208.54 10.45C208.28 10.45 208.07 10.66 208.07 10.92C208.07 11.18 208.28 11.39 208.54 11.39C208.8 11.39 209.01 11.18 209.01 10.92C209.01 10.66 208.8 10.45 208.54 10.45Z" fill="#333333"/>
<path d="M228.02 12.38H226.31C225.5 12.38 224.84 11.72 224.84 10.91C224.84 10.1 225.5 9.44 226.31 9.44H228.02C228.83 9.44 229.49 10.1 229.49 10.91C229.49 11.72 228.83 12.38 228.02 12.38ZM226.31 10.45C226.05 10.45 225.84 10.66 225.84 10.92C225.84 11.18 226.05 11.39 226.31 11.39H228.02C228.28 11.39 228.49 11.18 228.49 10.92C228.49 10.66 228.28 10.45 228.02 10.45H226.31Z" fill="#333333"/>
<path d="M214.68 41.45C209.44 41.45 205.18 37.19 205.18 31.95C205.18 26.71 209.44 22.45 214.68 22.45C219.92 22.45 224.18 26.71 224.18 31.95C224.18 37.19 219.92 41.45 214.68 41.45ZM214.68 23.45C209.99 23.45 206.18 27.26 206.18 31.95C206.18 36.64 209.99 40.45 214.68 40.45C219.37 40.45 223.18 36.64 223.18 31.95C223.18 27.26 219.37 23.45 214.68 23.45Z" fill="#333333"/>
<path d="M203.74 32.45C203.46 32.45 203.24 32.23 203.24 31.95C203.24 25.64 208.37 20.51 214.67 20.51C214.95 20.51 215.17 20.73 215.17 21.01C215.17 21.29 214.95 21.51 214.67 21.51C208.92 21.51 204.24 26.19 204.24 31.95C204.24 32.23 204.02 32.45 203.74 32.45Z" fill="#333333"/>
<path d="M220.41 41.76C220.24 41.76 220.08 41.68 219.98 41.52C219.84 41.28 219.91 40.98 220.14 40.83C223.25 38.91 225.11 35.59 225.11 31.94C225.11 29.08 223.98 26.42 221.92 24.43C221.72 24.24 221.72 23.92 221.91 23.72C222.1 23.52 222.42 23.52 222.62 23.71C224.87 25.89 226.12 28.81 226.12 31.94C226.12 35.94 224.09 39.58 220.68 41.68C220.59 41.74 220.5 41.76 220.41 41.76Z" fill="#333333"/>
<path d="M227.72 34.7H225.81V33.7H227.72L227.68 30.7L225.81 30.74V29.74H227.72C228.25 29.74 228.68 30.17 228.68 30.7V33.74C228.68 34.27 228.25 34.7 227.72 34.7Z" fill="#333333"/>
<path d="M218.92 31.84C219.252 31.84 219.52 31.5714 219.52 31.24C219.52 30.9086 219.252 30.64 218.92 30.64C218.589 30.64 218.32 30.9086 218.32 31.24C218.32 31.5714 218.589 31.84 218.92 31.84Z" fill="white"/>
<path d="M207.52 33.26C207.52 33.26 207.84 32.81 208.28 33.26C208.73 33.71 210.21 36.91 213.18 36.41C216.15 35.91 216.83 33.67 216.83 33.67C216.83 33.67 217.42 32.23 219.21 32.23C221.01 32.23 221.55 34.17 220.7 35.51C219.85 36.86 217.01 40.24 212.6 38.79C208.2 37.35 207.52 33.26 207.52 33.26Z" fill="white"/>
<path d="M215.78 34.08C215.78 34.08 215.7 33.82 215.41 33.94C215.12 34.05 213.86 35.17 212.49 34.4C211.13 33.63 211.18 32.52 211.18 32.52C211.18 32.52 211.14 31.78 210.26 31.44C209.38 31.1 208.8 31.85 208.98 32.6C209.16 33.35 209.98 35.36 212.37 35.55C214.76 35.74 215.78 34.08 215.78 34.08Z" fill="white"/>
</svg>
