<svg aria-hidden="true" xmlns="http://www.w3.org/2000/svg" xmlns:xlink="http://www.w3.org/1999/xlink"><symbol viewBox="0 0 14 14" fill="none" id="icon-arrow-next" xmlns="http://www.w3.org/2000/svg">
<path d="M2.23979 7.07309L2.23006 5.98492L8.75931 5.98492L5.73998 2.99247L6.5057 2.21987L10.8535 6.52901L6.58276 10.8381L5.80323 10.0655L8.76904 7.07309L2.23979 7.07309Z" fill="currentColor"/>
</symbol><symbol viewBox="0 0 18 18" fill="none" id="icon-close" xmlns="http://www.w3.org/2000/svg">
<rect x="1.9082" width="22.4829" height="2.69794" rx="1" transform="rotate(45 1.9082 0)" fill="currentColor"/>
<rect x="0.188477" y="15.916" width="22.4829" height="2.69794" rx="1" transform="rotate(-45 0.188477 15.916)" fill="currentColor"/>
</symbol><symbol viewBox="0 0 13 13" fill="none" id="icon-next-arrow" xmlns="http://www.w3.org/2000/svg">
<path d="M2.16707 7.04171L2.16707 5.95837L8.66707 5.95837L5.68791 2.97921L6.45707 2.21004L10.7471 6.50004L6.45707 10.79L5.6879 10.0209L8.66707 7.04171L2.16707 7.04171Z" fill="currentColor"/>
</symbol><symbol viewBox="0 0 6 9" fill="none" id="icon-prev" xmlns="http://www.w3.org/2000/svg">
<path d="M4.5 0.75L0.75 4.5L4.5 8.25" stroke="currentColor" stroke-width="1.5" stroke-linecap="round" stroke-linejoin="round"/>
</symbol><symbol viewBox="0 0 13 13" fill="none" id="icon-prev-arrow" xmlns="http://www.w3.org/2000/svg">
<path d="M10.8329 5.95829V7.04163L4.33293 7.04163L7.3121 10.0208L6.54293 10.79L2.25293 6.49996L6.54293 2.20996L7.3121 2.97913L4.33293 5.95829H10.8329Z" fill="currentColor"/>
</symbol><symbol viewBox="0 0 25 25" fill="none" id="icon-tel" xmlns="http://www.w3.org/2000/svg">
<path d="M0 4.89927C0 4.14189 0.288184 3.28985 1.05668 2.53247C1.72911 1.96444 2.30548 1.30174 2.97791 0.639035C3.07397 0.544363 3.17003 0.449691 3.26609 0.35502C3.84246 -0.11834 4.51489 -0.11834 4.9952 0.35502C5.37944 0.639035 5.66763 1.01772 6.05187 1.30174C6.91643 2.24846 7.87704 3.1005 8.7416 4.04722C9.31796 4.61525 9.31796 5.27796 8.7416 5.84599C8.16523 6.69803 7.39673 7.36074 6.7243 8.02344C6.05187 8.68614 5.95581 8.97016 6.34006 9.82221C7.10855 11.4316 8.16523 12.757 9.31796 13.9878C10.7589 15.5025 12.2959 16.8279 14.121 17.964C14.5053 18.1533 14.8895 18.4373 15.2738 18.6267C15.8501 18.9107 16.3305 18.816 16.7147 18.4373C17.3871 17.7746 18.0596 17.1119 18.732 16.4492C18.8281 16.3546 18.9241 16.2599 19.1162 16.1652C19.6926 15.7865 20.365 15.7865 20.8453 16.2599C22.0941 17.4906 23.3429 18.6267 24.4957 19.8574C25.1681 20.5201 25.1681 21.1828 24.4957 21.8455C23.7272 22.6976 22.9587 23.455 22.1902 24.2123C21.4217 24.9697 20.365 25.0644 19.4044 24.9697C17.6753 24.7804 16.1383 24.2123 14.6013 23.455C11.5274 21.9402 8.83766 19.9521 6.43612 17.4906C4.03458 14.9345 2.01729 12.189 0.768492 8.87549C0.384246 7.55008 0 6.41402 0 4.89927Z" fill="currentColor"/>
</symbol></svg>